<svg xmlns="http://www.w3.org/2000/svg" width="192" height="192" viewBox="0 0 192 192">
  <rect width="192" height="192" rx="48" fill="#000000"/>
  <path d="M96 152c-22.5-14.5-44-32.6-57.6-52.3C27.8 83.9 28.7 62.7 43.3 48c14.6-14.6 37.9-14.6 52.5 0l.2.2.2-.2c14.6-14.6 37.9-14.6 52.5 0 14.6 14.7 15.5 35.9 4.9 51.7C140 119.4 118.5 137.5 96 152z" fill="#FF6B9D"/>
  <path d="M96 138.5c-19.6-12.8-38.3-28.7-50.1-45.8-8.8-13-8.0-29.6 3.0-40.6 11.0-11.0 28.6-11.0 39.6 0l7.5 7.5 7.5-7.5c11.0-11.0 28.6-11.0 39.6 0 11.0 11.0 11.8 27.6 3.0 40.6-11.8 17.1-30.5 33.0-50.1 45.8z" fill="#ffffff" fill-opacity="0.12"/>
</svg>
