<svg xmlns="http://www.w3.org/2000/svg" width="512" height="512" viewBox="0 0 512 512">
  <rect width="512" height="512" rx="128" fill="#000000"/>
  <path d="M256 405c-60-38.7-117.4-86.8-153.6-139.5-28.3-41-25.9-97.6 13-136.5 39-39 101.9-39 140.9 0l.7.7.7-.7c39-39 101.9-39 140.9 0 39 39 41.3 95.5 13 136.5C373.4 318.2 316 366.3 256 405z" fill="#FF6B9D"/>
  <path d="M256 368.5c-52.2-34-102-76.2-133.6-121.8-23.4-34-21.2-77.4 8-106.6 29.2-29.2 76.4-29.2 105.6 0l20 20 20-20c29.2-29.2 76.4-29.2 105.6 0 29.2 29.2 31.4 72.6 8 106.6-31.6 45.6-81.4 87.8-133.6 121.8z" fill="#ffffff" fill-opacity="0.12"/>
</svg>
